# Blender v2.91.2 OBJ File: ''
# www.blender.org
mtllib cars_car.mtl
o FuzzyRed_Cube.001
v 6.257475 6.801136 14.251287
v 6.076011 8.321495 8.266968
v 6.257475 7.673672 -13.512984
v 6.257475 5.358088 15.190946
v 6.140950 -0.003598 12.033995
v 6.257475 1.867927 15.190947
v 6.140950 -0.019786 -9.787908
v 6.257475 2.740463 -13.512983
v 4.859970 11.447234 2.964604
v 4.828662 11.542917 -11.432313
v 4.492545 12.053244 -1.465217
v 4.288808 12.085138 -5.727240
v 4.002293 6.801136 15.190946
v 4.002293 5.358089 16.130606
v 4.002293 1.867927 16.130606
v -6.257475 6.801136 14.251287
v -6.076011 8.321495 8.266968
v -6.257475 7.673672 -13.512984
v -6.257475 5.358088 15.190946
v -6.140950 -0.003598 12.033995
v -6.257475 1.867927 15.190947
v -6.140950 -0.019786 -9.787908
v -6.257475 2.740463 -13.512983
v -4.859970 11.447234 2.964604
v -4.828662 11.542917 -11.432313
v -4.492545 12.053244 -1.465217
v -4.288808 12.085138 -5.727240
v -4.002293 6.801136 15.190946
v 0.000000 7.673672 -13.773522
v -4.002293 5.358089 16.130606
v 0.000000 8.321495 8.579613
v -4.002293 1.867927 16.130606
v 0.000000 -0.003598 12.033995
v 0.000000 -0.019786 -9.787908
v 0.000000 2.740463 -13.773521
v 0.000000 11.447234 3.068819
v 0.000000 11.542917 -11.432313
v 0.000000 12.053244 -1.465217
v 0.000000 12.085138 -5.727240
v 0.000000 6.801136 15.451483
v 0.000000 5.358089 16.391142
v 0.000000 1.867927 16.391142
vt 0.414211 0.975471
vt 0.840286 0.976962
vt 0.672849 0.994453
vt 0.546026 0.993503
vt 0.050399 0.690425
vt 0.904525 0.716388
vt 0.904525 0.863183
vt 0.050399 0.794279
vt 0.793680 0.634253
vt 0.144338 0.634735
vt 0.256431 0.878154
vt 0.466315 0.365167
vt 0.466315 0.417829
vt 0.388595 0.417829
vt 0.388595 0.365167
vt 0.078359 0.837219
vt 0.466066 0.419786
vt 0.453065 0.481916
vt 0.388588 0.419786
vt 0.485504 0.184982
vt 0.485685 0.232319
vt 0.399325 0.232319
vt 0.454983 0.230237
vt 0.381347 0.230237
vt 0.097861 0.737878
vt 0.097861 0.751501
vt 0.094027 0.751501
vt 0.094027 0.737878
vt 0.334014 0.456533
vt 0.335160 0.468649
vt 0.324905 0.468649
vt 0.324905 0.456533
vt 0.539191 0.444319
vt 0.539191 0.257950
vt 0.753265 0.257950
vt 0.753265 0.444319
vt 0.250664 0.417829
vt 0.250664 0.365167
vt 0.251088 0.481916
vt 0.251088 0.419786
vt 0.335227 0.438074
vt 0.334446 0.447482
vt 0.324905 0.447482
vt 0.324905 0.438074
vt 0.246062 0.232319
vt 0.246062 0.184982
vt 0.449233 0.483357
vt 0.402212 0.599524
vt 0.249192 0.605676
vt 0.249192 0.483357
vt 0.250664 0.230237
vt 0.541162 0.257331
vt 0.539891 0.173897
vt 0.754019 0.173897
vt 0.754019 0.257331
vt 0.590617 0.594486
vt 0.539772 0.446400
vt 0.752745 0.446400
vt 0.752745 0.597587
vt 0.414211 0.975471
vt 0.546026 0.993503
vt 0.672849 0.994453
vt 0.840286 0.976962
vt 0.050399 0.690425
vt 0.050399 0.794279
vt 0.904525 0.863183
vt 0.904525 0.716388
vt 0.793680 0.634253
vt 0.144338 0.634735
vt 0.256431 0.878154
vt 0.035012 0.366144
vt 0.112733 0.365167
vt 0.112733 0.417829
vt 0.035012 0.417829
vt 0.078359 0.837219
vt 0.036110 0.419786
vt 0.113588 0.419786
vt 0.046651 0.481916
vt 0.006620 0.184982
vt 0.092799 0.232319
vt 0.006439 0.232319
vt 0.046345 0.230237
vt 0.119981 0.230237
vt 0.090193 0.737878
vt 0.090193 0.751501
vt 0.315797 0.456533
vt 0.314651 0.468649
vt 0.967338 0.444319
vt 0.967338 0.257950
vt 0.314584 0.438074
vt 0.315364 0.447482
vt 0.049151 0.483357
vt 0.094621 0.599524
vt 0.966877 0.257331
vt 0.968148 0.173897
vt 0.914872 0.594486
vt 0.966493 0.446400
vn 0.5261 0.8218 0.2187
vn 0.4869 0.7644 -0.4225
vn 0.4120 0.9107 -0.0288
vn 0.4230 0.9053 0.0388
vn 0.7331 -0.3823 0.5625
vn 0.6316 -0.3621 -0.6856
vn 0.6852 0.2600 -0.6804
vn 0.7787 0.2029 0.5936
vn 0.8287 -0.4684 -0.3063
vn 0.8448 -0.4892 0.2168
vn 0.7247 0.6530 0.2200
vn 0.6966 0.6234 0.3551
vn 0.1391 0.7960 0.5891
vn 0.2143 0.2719 0.9382
vn 0.1765 -0.5070 0.8437
vn 0.0000 -1.0000 0.0007
vn 0.0000 0.8411 -0.5409
vn 0.0000 0.9990 -0.0436
vn -0.0000 -0.4523 -0.8919
vn 0.0000 0.2565 -0.9665
vn 0.0000 0.8145 0.5801
vn 0.0000 0.2814 0.9596
vn 0.0000 0.9338 0.3578
vn 0.0000 0.9975 0.0709
vn 0.0000 0.9458 0.3248
vn 0.0000 -0.5345 0.8452
vn 0.0000 -0.9134 0.4071
vn 0.0000 -0.8132 -0.5820
vn -0.5261 0.8218 0.2187
vn -0.4230 0.9053 0.0388
vn -0.4120 0.9107 -0.0288
vn -0.4869 0.7644 -0.4225
vn -0.7331 -0.3823 0.5625
vn -0.7787 0.2029 0.5936
vn -0.6852 0.2600 -0.6804
vn -0.6316 -0.3621 -0.6856
vn -0.8287 -0.4684 -0.3063
vn -0.8448 -0.4892 0.2168
vn -0.7247 0.6530 0.2200
vn -0.2143 0.2719 0.9382
vn -0.1391 0.7960 0.5891
vn -0.6966 0.6234 0.3551
vn -0.1765 -0.5070 0.8437
g FuzzyRed_Cube.001_FuzzyRed
usemtl FuzzyRed
s 1
f 9/1/1 10/2/2 12/3/3 11/4/4
f 6/5/5 8/6/6 3/7/7 4/8/8
f 7/9/9 8/6/6 6/5/5 5/10/10
f 2/11/11 3/7/7 10/2/2 9/1/1
f 4/12/8 1/13/12 13/14/13 14/15/14
f 4/8/8 3/7/7 2/11/11 1/16/12
f 1/17/12 2/18/11 13/19/13
f 5/20/10 6/21/5 15/22/15
f 6/23/5 4/12/8 14/15/14 15/24/15
f 7/25/16 5/26/16 33/27/16 34/28/16
f 12/29/3 10/30/2 37/31/17 39/32/18
f 3/33/7 8/34/6 35/35/19 29/36/20
f 14/15/14 13/14/13 40/37/21 41/38/22
f 13/19/13 2/18/11 31/39/23 40/40/21
f 9/41/1 11/42/4 38/43/24 36/44/25
f 5/20/10 15/22/15 42/45/26 33/46/27
f 2/47/11 9/48/1 36/49/25 31/50/23
f 15/24/15 14/15/14 41/38/22 42/51/26
f 8/52/6 7/53/9 34/54/28 35/55/19
f 11/42/4 12/29/3 39/32/18 38/43/24
f 10/56/2 3/57/7 29/58/20 37/59/17
f 24/60/29 26/61/30 27/62/31 25/63/32
f 21/64/33 19/65/34 18/66/35 23/67/36
f 22/68/37 20/69/38 21/64/33 23/67/36
f 17/70/39 24/60/29 25/63/32 18/66/35
f 19/71/34 30/72/40 28/73/41 16/74/42
f 19/65/34 16/75/42 17/70/39 18/66/35
f 16/76/42 28/77/41 17/78/39
f 20/79/38 32/80/43 21/81/33
f 21/82/33 32/83/43 30/72/40 19/71/34
f 22/84/16 34/28/16 33/27/16 20/85/16
f 27/86/31 39/32/18 37/31/17 25/87/32
f 18/88/35 29/36/20 35/35/19 23/89/36
f 30/72/40 41/38/22 40/37/21 28/73/41
f 28/77/41 40/40/21 31/39/23 17/78/39
f 24/90/29 36/44/25 38/43/24 26/91/30
f 20/79/38 33/46/27 42/45/26 32/80/43
f 17/92/39 31/50/23 36/49/25 24/93/29
f 32/83/43 42/51/26 41/38/22 30/72/40
f 23/94/36 35/55/19 34/54/28 22/95/37
f 26/91/30 38/43/24 39/32/18 27/86/31
f 25/96/32 37/59/17 29/58/20 18/97/35
